<?xml version="1.0" encoding="utf-8"?>
<!-- Generator: Adobe Illustrator 27.4.1, SVG Export Plug-In . SVG Version: 6.00 Build 0)  -->
<svg version="1.0" id="Layer_1" xmlns="http://www.w3.org/2000/svg" xmlns:xlink="http://www.w3.org/1999/xlink" x="0px" y="0px"
	 viewBox="0 0 811.76 620" style="enable-background:new 0 0 811.76 620;" xml:space="preserve">
<style type="text/css">
	.st0{fill:#F2F2F2;}
	.st1{fill:#FFFFFF;}
	.st2{fill:#CF9E76;}
	.st3{fill:#FFB8B8;}
	.st4{fill:#2F2E41;}
	.st5{fill:#6C63FF;}
	.st6{fill:#3F3D56;}
	.st7{fill:#CCCCCC;}
	.st8{fill:#E6E6E6;}
</style>
<path class="st0" d="M74.91,619.03l-0.04,0.25c-0.04-0.24-0.09-0.48-0.13-0.73c-0.08-0.39-0.14-0.78-0.2-1.17
	c-2.44-15.35-1.1-31.05,3.91-45.76c0.96-2.87,2.06-5.69,3.29-8.46c4.7-10.71,11.36-20.45,19.65-28.71c2.69-2.75,5.76-5.11,9.11-6.99
	c0.49-0.26,0.99-0.51,1.49-0.74c3.1-1.51,6.6-2.01,10-1.45c1.24,0.23,2.43,0.63,3.56,1.2c0.39,0.19,0.77,0.4,1.15,0.63
	c4.6,3.01,7.73,7.81,8.65,13.23c0.65,4,0.5,8.09-0.43,12.03c-0.08,0.38-0.17,0.75-0.26,1.13c-0.66,2.63-1.49,5.21-2.49,7.73
	C122.19,586.86,100.77,609.62,74.91,619.03z"/>
<path class="st1" d="M125.48,526.55c-7.78,11.18-15.13,22.64-22.04,34.38c-6.91,11.73-13.37,23.72-19.37,35.96
	c-3.36,6.85-6.57,13.76-9.64,20.75c-0.34,0.77,0.81,1.45,1.15,0.66c5.48-12.47,11.42-24.72,17.82-36.75
	c6.4-12.02,13.26-23.78,20.56-35.29c4.09-6.44,8.31-12.79,12.67-19.05C127.12,526.51,125.97,525.85,125.48,526.55L125.48,526.55z"/>
<path class="st1" d="M133.81,552.42c-5.85,7.6-14.45,12.58-23.95,13.88c-2.65,0.36-5.33,0.41-7.99,0.16
	c-0.85-0.08-0.86,1.25-0.01,1.33c9.91,0.83,19.74-2.27,27.37-8.65c2.14-1.79,4.06-3.82,5.73-6.05
	C135.47,552.41,134.32,551.75,133.81,552.42L133.81,552.42z"/>
<path class="st1" d="M83.88,593.63c-1.36-1.94-2.49-4.02-3.36-6.22c-2-5.01-2.71-10.44-2.07-15.8c0.96-2.87,2.06-5.69,3.29-8.46
	c0.15,0.22,0.17,0.51,0.06,0.75c-0.87,2.08-1.49,4.24-1.85,6.46c-1.32,7.91,0.51,16.02,5.09,22.6c0.12,0.15,0.15,0.34,0.09,0.52
	c-0.16,0.36-0.59,0.53-0.95,0.37C84.06,593.81,83.96,593.73,83.88,593.63z"/>
<path class="st1" d="M110.7,526.62c-1.6,6.38-1.12,13.09,1.36,19.18c0.18,0.32,0.59,0.43,0.9,0.25c0.31-0.19,0.42-0.59,0.25-0.9
	c-2.33-5.77-2.76-12.14-1.23-18.17c0.08-0.36-0.14-0.71-0.49-0.8C111.14,526.09,110.8,526.28,110.7,526.62L110.7,526.62z"/>
<path class="st0" d="M74.75,587l0.08,0.24c-0.15-0.19-0.3-0.39-0.45-0.58c-0.25-0.31-0.49-0.63-0.72-0.95
	c-9.29-12.46-15.4-26.99-17.8-42.34c-0.48-2.99-0.82-5.99-1.02-9.02c-0.81-11.67,0.57-23.39,4.06-34.55
	c1.1-3.69,2.73-7.2,4.82-10.43c0.32-0.46,0.64-0.91,0.98-1.35c2.05-2.77,4.91-4.85,8.18-5.93c1.2-0.37,2.45-0.57,3.71-0.6
	c0.44-0.01,0.87,0,1.31,0.02c5.47,0.53,10.47,3.32,13.8,7.7c2.43,3.24,4.2,6.93,5.2,10.86c0.1,0.37,0.2,0.74,0.29,1.12
	c0.63,2.63,1.1,5.31,1.39,8C101.68,536.55,93.28,566.65,74.75,587z"/>
<path class="st1" d="M76.57,481.61c-1.7,13.51-2.88,27.07-3.55,40.69c-0.67,13.6-0.82,27.21-0.45,40.84
	c0.21,7.62,0.57,15.24,1.1,22.85c0.06,0.84,1.38,0.91,1.33,0.05c-0.94-13.59-1.37-27.19-1.29-40.82c0.09-13.62,0.69-27.22,1.82-40.8
	c0.63-7.6,1.42-15.18,2.37-22.75C78.01,480.81,76.68,480.76,76.57,481.61L76.57,481.61z"/>
<path class="st1" d="M95.96,500.65c-1.65,9.44-6.95,17.86-14.76,23.41c-2.18,1.55-4.53,2.84-7.01,3.85c-0.79,0.32-0.18,1.5,0.6,1.18
	c9.16-3.86,16.42-11.18,20.22-20.37c1.06-2.58,1.82-5.27,2.27-8.02C97.43,499.87,96.1,499.82,95.96,500.65L95.96,500.65z"/>
<path class="st1" d="M70.89,560.34c-2.1-1.08-4.07-2.41-5.87-3.95c-4.1-3.51-7.25-7.99-9.17-13.03c-0.48-2.99-0.82-5.99-1.02-9.02
	c0.24,0.13,0.39,0.37,0.4,0.64c0.2,2.24,0.65,4.45,1.36,6.58c2.51,7.62,7.89,13.95,15.01,17.65c0.17,0.07,0.29,0.23,0.32,0.42
	c0.03,0.4-0.28,0.74-0.67,0.77C71.13,560.41,71.01,560.39,70.89,560.34z"/>
<path class="st1" d="M63.51,488.54c1.54,6.39,5.09,12.12,10.11,16.35c0.31,0.2,0.72,0.11,0.92-0.2c0.19-0.31,0.1-0.71-0.2-0.92
	c-4.74-4.03-8.08-9.47-9.53-15.52c-0.09-0.36-0.45-0.57-0.81-0.48C63.66,487.86,63.45,488.19,63.51,488.54L63.51,488.54z"/>
<path class="st0" d="M75.32,619.2l0.19,0.15c-0.23-0.08-0.46-0.16-0.69-0.25c-0.38-0.13-0.75-0.27-1.12-0.41
	c-14.53-5.49-27.51-14.45-37.8-26.09c-2.02-2.26-3.92-4.61-5.71-7.05c-6.97-9.39-12.12-20.01-15.18-31.3
	c-1.06-3.7-1.58-7.53-1.55-11.38c0.02-0.56,0.05-1.11,0.1-1.66c0.23-3.44,1.52-6.72,3.7-9.4c0.81-0.96,1.76-1.8,2.8-2.5
	c0.36-0.25,0.73-0.47,1.11-0.69c4.9-2.5,10.61-2.84,15.78-0.95c3.79,1.42,7.27,3.58,10.23,6.34c0.29,0.26,0.57,0.52,0.85,0.78
	c1.95,1.88,3.78,3.88,5.48,6C70.84,562.18,79.98,592.07,75.32,619.2z"/>
<path class="st1" d="M20.1,529.41c5.85,12.3,12.16,24.36,18.92,36.2c6.76,11.82,13.97,23.37,21.61,34.66
	c4.28,6.31,8.69,12.53,13.23,18.66c0.5,0.68,1.65,0.02,1.15-0.67c-8.11-10.94-15.8-22.17-23.07-33.7
	c-7.26-11.52-14.07-23.31-20.45-35.36c-3.56-6.74-6.98-13.56-10.26-20.45C20.88,527.97,19.74,528.65,20.1,529.41z"/>
<path class="st1" d="M46.7,535.02c3.7,8.84,3.76,18.79,0.17,27.68c-1,2.48-2.28,4.84-3.83,7.02c-0.49,0.7,0.66,1.36,1.15,0.67
	c5.64-8.19,7.82-18.27,6.06-28.05c-0.49-2.74-1.3-5.42-2.41-7.98C47.5,533.57,46.36,534.24,46.7,535.02L46.7,535.02z"/>
<path class="st1" d="M57.72,598.81c-2.36,0.22-4.73,0.16-7.07-0.16c-5.34-0.75-10.41-2.82-14.74-6.04
	c-2.02-2.26-3.92-4.61-5.71-7.05c0.27-0.02,0.53,0.1,0.68,0.32c1.37,1.78,2.95,3.4,4.69,4.82c6.22,5.07,14.16,7.5,22.15,6.79
	c0.19-0.03,0.37,0.04,0.49,0.18c0.24,0.32,0.17,0.77-0.15,1.01C57.96,598.75,57.84,598.79,57.72,598.81z"/>
<path class="st1" d="M12.83,542.29c4.74,4.55,10.81,7.47,17.33,8.33c0.36,0.05,0.66-0.34,0.66-0.66c-0.01-0.36-0.3-0.65-0.66-0.66
	c-6.17-0.84-11.91-3.63-16.39-7.94C13.15,540.76,12.21,541.69,12.83,542.29L12.83,542.29z"/>
<path class="st2" d="M165.86,444.25c4.89-3.35,6.14-10.04,2.79-14.93c-0.36-0.52-0.76-1.01-1.2-1.46l4.17-93.02l-21.22,2.38
	l1.23,90.98c-3.97,4.46-3.57,11.28,0.89,15.25C156.25,446.77,161.76,447.1,165.86,444.25z"/>
<polygon class="st3" points="204.56,601.71 216.64,603.83 228.57,558.27 212.75,555.13 "/>
<path class="st4" d="M237.95,619.14l-37.95-6.67l0,0l2.58-14.66l0,0l23.29,4.09C233.97,603.32,239.38,611.04,237.95,619.14
	L237.95,619.14L237.95,619.14z"/>
<polygon class="st3" points="171.42,607.75 183.68,607.75 189.51,560.46 171.42,560.46 "/>
<path class="st4" d="M207.33,619.13l-38.53,0l0,0l0-14.89l0,0l23.64,0C200.66,604.25,207.33,610.91,207.33,619.13L207.33,619.13
	L207.33,619.13z"/>
<path class="st4" d="M223.57,594.8c-0.19,0-0.38-0.01-0.57-0.03l-14.43-1.19c-2.68-0.31-4.59-2.74-4.28-5.42
	c0.01-0.08,0.02-0.16,0.03-0.24l13.32-74.68l-9-47.47c-0.17-0.88-1.02-1.46-1.9-1.29c-0.71,0.14-1.25,0.73-1.32,1.45l-11.26,126.63
	c-0.26,2.64-2.56,4.6-5.21,4.44l-13.59-0.51c-2.47-0.17-4.41-2.16-4.54-4.63l-0.91-151.77l70.48-8.81l4.92,76.04l-0.02,0.08
	l-16.99,83.67C227.78,593.26,225.83,594.8,223.57,594.8z"/>
<circle class="st2" cx="193.16" cy="250" r="24.56"/>
<path class="st5" d="M216.3,451.18c-3.84,0.02-7.61-1.05-10.86-3.11c-11.9-7.44-25.41-4.48-32.41-2.06
	c-1.41,0.49-2.96,0.32-4.22-0.48c-1.25-0.78-2.06-2.09-2.22-3.55l-12.72-113.63c-2.13-19.04,9.34-36.94,27.27-42.56l0,0
	c0.67-0.21,1.36-0.41,2.06-0.6c11.3-3.06,23.37-0.97,32.97,5.72c9.78,6.76,16.07,17.51,17.17,29.35l10.71,114.39
	c0.15,1.5-0.42,2.98-1.53,4.01C238.76,442.14,227.86,451.18,216.3,451.18z"/>
<path class="st5" d="M177.56,352.72l-28.7-3.16c-3.14-0.35-5.4-3.17-5.06-6.31c0.03-0.28,0.08-0.55,0.15-0.83l7.31-27.85
	c1.01-8.71,8.89-14.95,17.6-13.95c8.68,1.01,14.91,8.83,13.96,17.51l1.08,28.68c0.12,3.16-2.34,5.81-5.5,5.93
	C178.12,352.77,177.84,352.75,177.56,352.72L177.56,352.72z"/>
<path class="st2" d="M243.93,440.27c4.45-3.92,4.89-10.71,0.97-15.16c-0.42-0.47-0.88-0.91-1.37-1.31l-7.07-92.84l-20.79,4.68
	l12.2,90.41c-3.4,4.9-2.18,11.63,2.72,15.03C234.69,443.92,240.2,443.59,243.93,440.27z"/>
<path class="st5" d="M207.69,346.89c-1.22-1.13-1.88-2.74-1.82-4.4l1.08-28.68c-0.96-8.72,5.33-16.56,14.05-17.52
	c8.68-0.95,16.5,5.28,17.51,13.96l7.31,27.85c0.8,3.05-1.03,6.18-4.08,6.98c-0.27,0.07-0.55,0.12-0.83,0.15l-28.7,3.16
	C210.56,348.57,208.91,348.02,207.69,346.89z"/>
<path class="st4" d="M191.7,275.48c-0.44,0-0.87-0.05-1.3-0.15l-0.12-0.03c-21.59-3.3-26.37-15.81-27.41-21.04
	c-1.08-5.41,0.15-10.63,2.94-12.66c-1.52-4.8-1.28-9.06,0.73-12.66c3.5-6.28,11.08-8.4,12.1-8.66c6.06-4.47,13.31-1.49,14.63-0.88
	c11.72-4.34,16.2-0.73,17.01,0.08c5.24,0.94,8.43,2.96,9.49,6.02c1.99,5.73-4.31,12.86-4.57,13.16l-0.14,0.16l-9.38,0.45
	c-3.51,0.17-6.22,3.15-6.05,6.65c0.01,0.22,0.03,0.44,0.07,0.66l0,0c0.25,1.14,0.57,2.26,0.96,3.36c1.6,5.01,2.8,9.28,1.25,10.91
	c-0.72,0.64-1.74,0.82-2.63,0.46c-1.47-0.39-2.46-0.31-2.96,0.24c-0.77,0.86-0.54,3.03,0.66,6.13c0.77,1.99,0.36,4.24-1.05,5.85
	C194.87,274.76,193.33,275.48,191.7,275.48z"/>
<path class="st6" d="M481.76,354h-121c-9.38-0.01-16.99-7.62-17-17V155.17c0.01-9.38,7.62-16.99,17-17h121
	c9.38,0.01,16.99,7.62,17,17V337C498.75,346.38,491.14,353.99,481.76,354z M360.76,140.17c-8.28,0.01-14.99,6.72-15,15V337
	c0.01,8.28,6.72,14.99,15,15h121c8.28-0.01,14.99-6.72,15-15V155.17c-0.01-8.28-6.72-14.99-15-15H360.76z"/>
<path class="st5" d="M463.26,225.58h-84c-4.69-0.01-8.49-3.81-8.5-8.5v-40c0.01-4.69,3.81-8.49,8.5-8.5h84
	c4.69,0.01,8.49,3.81,8.5,8.5v40C471.75,221.78,467.95,225.58,463.26,225.58z"/>
<path class="st7" d="M457.26,263.08h-72c-4.42,0-8-3.58-8-8s3.58-8,8-8h72c4.42,0,8,3.58,8,8S461.68,263.08,457.26,263.08z"/>
<path class="st7" d="M457.26,293.08h-72c-4.42,0-8-3.58-8-8s3.58-8,8-8h72c4.42,0,8,3.58,8,8S461.68,293.08,457.26,293.08z"/>
<path class="st7" d="M457.26,323.08h-72c-4.42,0-8-3.58-8-8s3.58-8,8-8h72c4.42,0,8,3.58,8,8S461.68,323.08,457.26,323.08z"/>
<path class="st6" d="M776.76,456h-121c-9.38-0.01-16.99-7.62-17-17V257.17c0.01-9.38,7.62-16.99,17-17h121
	c9.38,0.01,16.99,7.62,17,17V439C793.75,448.38,786.14,455.99,776.76,456z M655.76,242.17c-8.28,0.01-14.99,6.72-15,15V439
	c0.01,8.28,6.72,14.99,15,15h121c8.28-0.01,14.99-6.72,15-15V257.17c-0.01-8.28-6.72-14.99-15-15H655.76z"/>
<path class="st7" d="M752.26,285.08h-72c-4.42,0-8-3.58-8-8s3.58-8,8-8h72c4.42,0,8,3.58,8,8S756.68,285.08,752.26,285.08z"/>
<path class="st7" d="M752.26,315.08h-72c-4.42,0-8-3.58-8-8s3.58-8,8-8h72c4.42,0,8,3.58,8,8S756.68,315.08,752.26,315.08z"/>
<path class="st8" d="M758.26,391.58h-84c-4.69-0.01-8.49-3.81-8.5-8.5v-40c0.01-4.69,3.81-8.49,8.5-8.5h84
	c4.69,0.01,8.49,3.81,8.5,8.5v40C766.75,387.78,762.95,391.58,758.26,391.58z"/>
<path class="st7" d="M752.26,427.08h-72c-4.42,0-8-3.58-8-8s3.58-8,8-8h72c4.42,0,8,3.58,8,8S756.68,427.08,752.26,427.08z"/>
<path class="st6" d="M702.76,167h-121c-9.38-0.01-16.99-7.62-17-17V37.17c0.01-9.38,7.62-16.99,17-17h121
	c9.38,0.01,16.99,7.62,17,17V150C719.75,159.38,712.14,166.99,702.76,167z M581.76,22.17c-8.28,0.01-14.99,6.72-15,15V150
	c0.01,8.28,6.72,14.99,15,15h121c8.28-0.01,14.99-6.72,15-15V37.17c-0.01-8.28-6.72-14.99-15-15H581.76z"/>
<path class="st7" d="M678.26,131.58h-72c-4.42,0-8-3.58-8-8s3.58-8,8-8h72c4.42,0,8,3.58,8,8S682.68,131.58,678.26,131.58z"/>
<path class="st7" d="M678.26,101.58h-72c-4.42,0-8-3.58-8-8s3.58-8,8-8h72c4.42,0,8,3.58,8,8S682.68,101.58,678.26,101.58z"/>
<path class="st7" d="M678.26,71.58h-72c-4.42,0-8-3.58-8-8s3.58-8,8-8h72c4.42,0,8,3.58,8,8S682.68,71.58,678.26,71.58z"/>
<circle class="st5" cx="488.76" cy="143" r="23"/>
<path class="st1" d="M486.48,151.77c-0.52,0-1.02-0.17-1.44-0.48l-0.03-0.02l-5.41-4.14c-1.05-0.8-1.26-2.31-0.45-3.37
	c0.8-1.05,2.31-1.26,3.37-0.45c0,0,0.01,0,0.01,0.01l3.5,2.68l8.27-10.79c0.81-1.05,2.31-1.25,3.37-0.44c0,0,0,0,0,0l-0.05,0.07
	l0.05-0.07c1.05,0.81,1.25,2.31,0.44,3.37l-9.73,12.69C487.93,151.43,487.23,151.78,486.48,151.77z"/>
<circle class="st6" cx="788.76" cy="246" r="23"/>
<path class="st1" d="M786.48,254.77c-0.52,0-1.02-0.17-1.44-0.48l-0.03-0.02l-5.41-4.14c-1.05-0.8-1.26-2.31-0.45-3.37
	c0.8-1.05,2.31-1.26,3.37-0.45c0,0,0.01,0,0.01,0.01l3.5,2.68l8.27-10.79c0.81-1.05,2.31-1.25,3.37-0.44c0,0,0,0,0,0l-0.05,0.07
	l0.05-0.07c1.05,0.81,1.25,2.31,0.44,3.37l-9.73,12.69C787.93,254.43,787.23,254.78,786.48,254.77z"/>
<circle class="st6" cx="715.76" cy="23" r="23"/>
<path class="st1" d="M713.48,31.77c-0.52,0-1.02-0.17-1.44-0.48l-0.03-0.02l-5.41-4.14c-1.06-0.8-1.26-2.31-0.46-3.37
	c0.8-1.06,2.31-1.26,3.37-0.46c0,0,0.01,0.01,0.01,0.01l3.5,2.68l8.27-10.79c0.81-1.05,2.31-1.25,3.37-0.44c0,0,0,0,0,0l-0.05,0.07
	l0.05-0.07c1.05,0.81,1.25,2.31,0.44,3.37l-9.73,12.69C714.93,31.43,714.23,31.78,713.48,31.77z"/>
<path class="st6" d="M382,620H1c-0.55,0-1-0.45-1-1s0.45-1,1-1h381c0.55,0,1,0.45,1,1S382.55,620,382,620z"/>
</svg>
